<svg width="425" height="400" xmlns="http://www.w3.org/2000/svg">
   <path stroke="null" fill="#5d5dff" d="m244.938787,88.03561c0,1.389706 0.694123,2.084454 2.084454,2.084454c15.39161,20.958562 29.98279,42.497854 43.77354,64.618082c-3.162117,-0.022095 -5.594675,-1.411592 -7.29559,-4.168909c-63.090177,8.250687 -124.581578,22.841867 -184.474202,43.77354c-1.817644,-4.09762 -1.470166,-8.266529 1.042227,-12.506726c10.235296,-22.553378 21.004837,-44.787627 32.309041,-66.702536c1.389706,0.694749 2.779203,1.389706 4.168909,2.084454c32.157084,-11.689203 64.814021,-19.679541 97.96935,-23.971224c4.068855,-0.763119 7.541556,-2.500303 10.422271,-5.211136z" id="svg_8"/>
   <path stroke="null" fill="#5d5dff" d="m332.485866,215.18732c33.684781,45.086746 63.215244,93.029194 88.589306,143.827344c2.234535,6.363839 0.150081,10.532747 -6.253363,12.506726c-12.287858,-3.979223 -24.44648,-8.148132 -36.47795,-12.506726c-10.870429,-7.168438 -22.683031,-12.725593 -35.435722,-16.675634c-44.194599,-23.925366 -91.44084,-39.558773 -141.74289,-46.900221c-68.65171,-8.852677 -125.974202,12.339969 -171.967477,63.575855c-9.425694,13.340507 -18.805738,26.541356 -28.140133,39.604631c17.4177,-40.02986 35.48304,-79.982595 54.195811,-119.85612c2.442147,-0.735812 4.873871,-0.389793 7.29559,1.042227c86.384162,-35.973512 176.363591,-57.512178 269.936827,-64.618082z" id="svg_7"/>
   <path stroke="null" fill="#5d5dff" d="m186.574068,0.488531c6.801366,10.134637 13.054937,20.556888 18.760088,31.266814c0,0.694749 0,1.389706 0,2.084454c-1.873924,-2.025047 -4.306483,-3.414753 -7.29559,-4.168909c-10.002254,1.086626 -19.382298,3.865829 -28.140133,8.337817c-0.694749,-0.694749 -1.389706,-1.389706 -2.084454,-2.084454c5.813751,-12.3358 12.067114,-24.147777 18.760088,-35.435722z" id="svg_6"/>
</svg>